<svg id="Layer_2" data-name="Layer 2" xmlns="http://www.w3.org/2000/svg" viewBox="0 0 562.73 112.66"><defs><style>.cls-1{fill:#fff;}.cls-2{fill:#e91e63;}</style></defs><polygon class="cls-1" points="112.23 36.72 112.23 0.01 37.41 0.01 37.41 19.07 37.41 36.72 37.41 75.4 0 75.4 0 112.11 74.82 112.11 74.82 75.4 74.82 75.4 74.82 36.72 112.23 36.72"/><polygon class="cls-1" points="262.87 0.01 187.62 0.01 156.71 0.01 150.21 0.01 150.21 111.54 187.62 111.54 187.62 75.12 262.87 75.12 262.87 0.01"/><polygon class="cls-1" points="374.4 74.69 374.4 37.56 337.41 37.56 337.41 0.01 300 0.01 300 111.54 301.13 111.54 301.13 112.11 412.66 112.11 412.66 74.69 374.4 74.69"/><polygon class="cls-2" points="487.62 37.55 487.62 0.01 450.07 0.01 450.07 37.56 487.62 37.56 487.62 75 450.07 75 450.07 112.55 487.62 112.55 487.62 75.11 525.17 75.11 525.17 37.55 487.62 37.55"/><rect class="cls-2" x="525.18" width="37.55" height="37.55"/><rect class="cls-2" x="525.18" y="75.11" width="37.55" height="37.55"/></svg>