<svg id="Layer_2" data-name="Layer 2" xmlns="http://www.w3.org/2000/svg" viewBox="0 0 564.3 155.4"><defs><style>.cls-1{fill:#283593;}.cls-2{fill:#1e88e5;}.cls-3{fill:#009688;}.cls-4{fill:#e91e63;}.cls-5{fill:#737373;}</style></defs><polygon class="cls-1" points="112.2 36.7 112.2 0 37.4 0 37.4 19.1 37.4 36.7 37.4 75.4 0 75.4 0 112.1 74.8 112.1 74.8 75.4 74.8 75.4 74.8 36.7 112.2 36.7"/><polygon class="cls-2" points="262.9 0 187.6 0 156.7 0 150.2 0 150.2 111.5 187.6 111.5 187.6 75.1 262.9 75.1 262.9 0"/><polygon class="cls-3" points="374.4 74.7 374.4 37.5 337.4 37.5 337.4 0 300 0 300 111.5 301.1 111.5 301.1 112.1 412.7 112.1 412.7 74.7 374.4 74.7"/><polygon class="cls-4" points="487.6 37.5 487.6 0 450.1 0 450.1 37.5 487.6 37.5 487.6 75 450.1 75 450.1 112.5 487.6 112.5 487.6 75.1 525.2 75.1 525.2 37.5 487.6 37.5"/><rect class="cls-4" x="525.2" width="37.5" height="37.5"/><rect class="cls-4" x="525.2" y="75.1" width="37.5" height="37.5"/><path class="cls-5" d="M8.3,134.3a14.28,14.28,0,0,1,2.9.3,12.24,12.24,0,0,1,2.7.9l-.6,2a11.42,11.42,0,0,0-2.6-.9,9.08,9.08,0,0,0-2.3-.3,5.2,5.2,0,0,0-3.2.9A3,3,0,0,0,4,139.8a3.17,3.17,0,0,0,.9,2.3,7.3,7.3,0,0,0,2.9,1.5l2.2.7a8,8,0,0,1,3.7,2.3,5,5,0,0,1,1.2,3.4,6.44,6.44,0,0,1-.5,2.4,4.89,4.89,0,0,1-1.4,1.8,9.41,9.41,0,0,1-2.2,1.2,9,9,0,0,1-2.8.4,17.33,17.33,0,0,1-3.2-.3,13.13,13.13,0,0,1-3.2-1l.6-1.9a14.76,14.76,0,0,0,2.7,1,13.33,13.33,0,0,0,2.8.3A6.29,6.29,0,0,0,11,153a3,3,0,0,0,1.3-2.7,5,5,0,0,0-.2-1.2,2.38,2.38,0,0,0-.6-1.1,4.7,4.7,0,0,0-1.2-.9,11.92,11.92,0,0,0-2-.8l-2.1-.7a8.79,8.79,0,0,1-3.4-1.9,4.67,4.67,0,0,1-1.3-3.4,4.94,4.94,0,0,1,1.8-4.1A6.46,6.46,0,0,1,8.3,134.3Z" transform="translate(0 -0.4)"/><path class="cls-5" d="M24.4,134.6h6.1a9,9,0,0,1,2.8.4,4.77,4.77,0,0,1,2.2,1.2,5.22,5.22,0,0,1,1.4,1.9,5.92,5.92,0,0,1,.5,2.7,6.26,6.26,0,0,1-.6,2.7,5,5,0,0,1-1.5,2,7,7,0,0,1-2.3,1.1,9.25,9.25,0,0,1-2.9.4H26.7v8.4H24.3V134.6ZM26.7,145h2.4a19.42,19.42,0,0,0,2.4-.2,3.59,3.59,0,0,0,1.8-.7,3.55,3.55,0,0,0,1.6-3.4,4.48,4.48,0,0,0-.4-2,3.74,3.74,0,0,0-1.2-1.3,5.58,5.58,0,0,0-1.6-.7,11.08,11.08,0,0,0-1.9-.2H26.7Z" transform="translate(0 -0.4)"/><path class="cls-5" d="M50,134.6h2.2l8.1,20.8H57.8l-2.3-5.9H46.6l-2.3,5.9H41.8Zm-2.8,12.9h7.5L53,143c-.3-.8-.6-1.6-1-2.6s-.7-2-1.1-3.2h-.1a14.24,14.24,0,0,0-.5,1.6l-.5,1.4c-.2.5-.3.9-.5,1.4s-.3.9-.5,1.4Z" transform="translate(0 -0.4)"/><path class="cls-5" d="M79.4,134.6v2H72.6v18.8H70.2V136.6H63.5v-2Z" transform="translate(0 -0.4)"/><path class="cls-5" d="M90.2,134.6v20.8H87.8V134.6Z" transform="translate(0 -0.4)"/><path class="cls-5" d="M106.8,134.6H109l8.1,20.8h-2.5l-2.3-5.9h-8.9l-2.3,5.9H98.6ZM104,147.5h7.5l-1.6-4.5c-.3-.8-.6-1.6-.9-2.6s-.7-2-1.1-3.2h-.1a14.24,14.24,0,0,0-.5,1.6l-.5,1.4c-.2.5-.3.9-.5,1.4s-.3.9-.5,1.4Z" transform="translate(0 -0.4)"/><path class="cls-5" d="M125.5,134.6h2.4v18.8h9.2v2H125.5Z" transform="translate(0 -0.4)"/><path class="cls-5" d="M158.2,134.6h12.2v1.9h-9.8v7.1h9v1.9h-9v7.8h9.9v1.9H158.2V134.6Z" transform="translate(0 -0.4)"/><path class="cls-5" d="M180.5,134.6l5.4,8.6,5.6-8.6h2.7l-6.9,10.2,7.2,10.6h-2.8l-5.8-8.9-5.8,8.9h-2.7l6.9-10.6-6.6-10.2Z" transform="translate(0 -0.4)"/><path class="cls-5" d="M202.6,134.6h6.1a9,9,0,0,1,2.8.4,4.77,4.77,0,0,1,2.2,1.2,5.22,5.22,0,0,1,1.4,1.9,5.92,5.92,0,0,1,.5,2.7,6.26,6.26,0,0,1-.6,2.7,5,5,0,0,1-1.5,2,10.08,10.08,0,0,1-2.3,1.2,9.25,9.25,0,0,1-2.9.4h-3.4v8.4h-2.4Zm2.5,10.4h2.4a19.42,19.42,0,0,0,2.4-.2,4.38,4.38,0,0,0,1.9-.7,3.74,3.74,0,0,0,1.2-1.3,5.22,5.22,0,0,0,.4-2.1,4.48,4.48,0,0,0-.4-2,3.74,3.74,0,0,0-1.2-1.3,4.59,4.59,0,0,0-1.6-.7,11.08,11.08,0,0,0-1.9-.2h-3.1V145Z" transform="translate(0 -0.4)"/><path class="cls-5" d="M225,134.6h6.4a9.67,9.67,0,0,1,2.9.4,7.19,7.19,0,0,1,2.1,1.2,3.87,3.87,0,0,1,1.2,1.9,6.72,6.72,0,0,1,.4,2.4,5.7,5.7,0,0,1-.4,2.2,5.85,5.85,0,0,1-1,1.7,5.26,5.26,0,0,1-1.4,1.2,11.94,11.94,0,0,1-1.6.8l5.6,8.9h-2.7l-5.1-8.5h-4.2v8.5H225Zm2.2,10.4h3.2a13.55,13.55,0,0,0,2-.2,3.46,3.46,0,0,0,1.6-.8,3.81,3.81,0,0,0,1.1-1.4,4.33,4.33,0,0,0,.4-1.9,4.14,4.14,0,0,0-1.2-3.2,6,6,0,0,0-3.6-1h-3.4Z" transform="translate(0 -0.4)"/><path class="cls-5" d="M247.8,134.6h12.3v1.9h-9.8v7.1h9v1.9h-9v7.8h9.8v1.9H247.8Z" transform="translate(0 -0.4)"/><path class="cls-5" d="M275.1,134.3a13.58,13.58,0,0,1,2.9.3,12.24,12.24,0,0,1,2.7.9l-.6,2a11.42,11.42,0,0,0-2.6-.9,9.08,9.08,0,0,0-2.3-.3,5.2,5.2,0,0,0-3.2.9,3,3,0,0,0-1.2,2.6,3.17,3.17,0,0,0,.9,2.3,7.3,7.3,0,0,0,2.9,1.5l2.2.7a8,8,0,0,1,3.7,2.3,5,5,0,0,1,1.2,3.4,6.44,6.44,0,0,1-.5,2.4,4.89,4.89,0,0,1-1.4,1.8,9.41,9.41,0,0,1-2.2,1.2,9,9,0,0,1-2.8.4,15.53,15.53,0,0,1-3.1-.3,11.24,11.24,0,0,1-3.1-1l.6-1.9a14.76,14.76,0,0,0,2.7,1,13.33,13.33,0,0,0,2.8.3,6.92,6.92,0,0,0,3.4-.9,3,3,0,0,0,1.3-2.7,5,5,0,0,0-.2-1.2,2.38,2.38,0,0,0-.6-1.1,4.7,4.7,0,0,0-1.2-.9,11.92,11.92,0,0,0-2-.8l-2.1-.7a8.79,8.79,0,0,1-3.4-1.9,4.67,4.67,0,0,1-1.3-3.4,4.94,4.94,0,0,1,1.8-4.1A5.72,5.72,0,0,1,275.1,134.3Z" transform="translate(0 -0.4)"/><path class="cls-5" d="M296.4,134.3a14.28,14.28,0,0,1,2.9.3,12.24,12.24,0,0,1,2.7.9l-.6,2a12.54,12.54,0,0,0-2.5-.9,9.08,9.08,0,0,0-2.3-.3,5.2,5.2,0,0,0-3.2.9,3,3,0,0,0-1.2,2.6,3.17,3.17,0,0,0,.9,2.3,7.3,7.3,0,0,0,2.9,1.5l2.2.7a8,8,0,0,1,3.7,2.3,5,5,0,0,1,1.2,3.4,6.44,6.44,0,0,1-.5,2.4,4.89,4.89,0,0,1-1.4,1.8,9.41,9.41,0,0,1-2.2,1.2,9,9,0,0,1-2.8.4,15.53,15.53,0,0,1-3.1-.3,11.24,11.24,0,0,1-3.1-1l.6-1.9a14.76,14.76,0,0,0,2.7,1,13.33,13.33,0,0,0,2.8.3,6.92,6.92,0,0,0,3.4-.9,3,3,0,0,0,1.3-2.7,5,5,0,0,0-.2-1.2,2.38,2.38,0,0,0-.6-1.1,3.81,3.81,0,0,0-1.3-.9,11.92,11.92,0,0,0-2-.8l-2.1-.7a8.79,8.79,0,0,1-3.4-1.9,4.67,4.67,0,0,1-1.3-3.4,4.94,4.94,0,0,1,1.8-4.1A5.49,5.49,0,0,1,296.4,134.3Z" transform="translate(0 -0.4)"/><path class="cls-5" d="M314.8,134.6v20.8h-2.4V134.6Z" transform="translate(0 -0.4)"/><path class="cls-5" d="M333.9,134.3a9.37,9.37,0,0,1,3.7.7,7.55,7.55,0,0,1,3,2,9.44,9.44,0,0,1,2,3.3,12.49,12.49,0,0,1,.7,4.7,12.06,12.06,0,0,1-.8,4.6,9.84,9.84,0,0,1-2,3.4,7.55,7.55,0,0,1-3,2,10.48,10.48,0,0,1-7.4,0,7.55,7.55,0,0,1-3-2,9.44,9.44,0,0,1-2-3.3,12.49,12.49,0,0,1-.7-4.7,12.06,12.06,0,0,1,.8-4.6,8.62,8.62,0,0,1,2-3.3,9,9,0,0,1,3-2.1A9.37,9.37,0,0,1,333.9,134.3Zm-7,10.6a13.2,13.2,0,0,0,.6,3.9,7.2,7.2,0,0,0,1.5,2.7,5.67,5.67,0,0,0,2.2,1.6,6.46,6.46,0,0,0,2.7.5,8.57,8.57,0,0,0,2.7-.5,6.91,6.91,0,0,0,2.2-1.6,7.2,7.2,0,0,0,1.5-2.7,10.48,10.48,0,0,0,.5-3.9,12.72,12.72,0,0,0-.6-3.9,7.2,7.2,0,0,0-1.5-2.7,6.91,6.91,0,0,0-2.2-1.6,7.54,7.54,0,0,0-5.4,0,6.91,6.91,0,0,0-2.2,1.6,7.2,7.2,0,0,0-1.5,2.7A17.37,17.37,0,0,0,326.9,144.9Z" transform="translate(0 -0.4)"/><path class="cls-5" d="M352.9,134.6h2.2l9.3,13.4,1.2,1.9c.4.6.8,1.2,1.2,1.9h.1c0-.8-.1-1.6-.1-2.4V134.7h2.3v20.8H367l-9.1-13c-.5-.7-.9-1.4-1.4-2.1a17.1,17.1,0,0,1-1.3-2.3h-.1c0,1,.1,2,.1,2.9v14.5h-2.3Z" transform="translate(0 -0.4)"/><path class="cls-5" d="M392.2,134.6h12.2v1.9h-9.8v7.1h9v1.9h-9v7.8h9.9v1.9H392.2V134.6Z" transform="translate(0 -0.4)"/><path class="cls-5" d="M414.5,134.6l5.4,8.6,5.6-8.6h2.7l-6.9,10.2,7.2,10.6h-2.8l-5.8-8.9-5.7,8.9h-2.7l6.9-10.6-6.6-10.2Z" transform="translate(0 -0.4)"/><path class="cls-5" d="M436.7,134.6h6.1a9,9,0,0,1,2.8.4,4.77,4.77,0,0,1,2.2,1.2,7,7,0,0,1,1.5,1.9,5.92,5.92,0,0,1,.5,2.7,6.26,6.26,0,0,1-.6,2.7,5,5,0,0,1-1.5,2,10.08,10.08,0,0,1-2.3,1.2,9.25,9.25,0,0,1-2.9.4h-3.4v8.4h-2.4V134.6Zm2.4,10.4h2.4a19.42,19.42,0,0,0,2.4-.2,4.38,4.38,0,0,0,1.9-.7,3.55,3.55,0,0,0,1.6-3.4,3.51,3.51,0,0,0-.5-2,4.73,4.73,0,0,0-1.1-1.3,5.58,5.58,0,0,0-1.6-.7,11.08,11.08,0,0,0-1.9-.2h-3.1V145Z" transform="translate(0 -0.4)"/><path class="cls-5" d="M459,134.6h2.4v18.8h9.2v2H459Z" transform="translate(0 -0.4)"/><path class="cls-5" d="M486.5,134.3a9.37,9.37,0,0,1,3.7.7,7.55,7.55,0,0,1,3,2,9.44,9.44,0,0,1,2,3.3,12.49,12.49,0,0,1,.7,4.7,14.26,14.26,0,0,1-.7,4.6,9.84,9.84,0,0,1-2,3.4,7.55,7.55,0,0,1-3,2,9.71,9.71,0,0,1-3.7.7,9.37,9.37,0,0,1-3.7-.7,7.55,7.55,0,0,1-3-2,9.44,9.44,0,0,1-2-3.3,12.49,12.49,0,0,1-.7-4.7,14.26,14.26,0,0,1,.7-4.6,8.62,8.62,0,0,1,2-3.3,9,9,0,0,1,3-2.1A9.71,9.71,0,0,1,486.5,134.3Zm-7,10.6a13.2,13.2,0,0,0,.6,3.9,7.2,7.2,0,0,0,1.5,2.7,5.67,5.67,0,0,0,2.2,1.6,6.46,6.46,0,0,0,2.7.5,8.57,8.57,0,0,0,2.7-.5,6.91,6.91,0,0,0,2.2-1.6,7.2,7.2,0,0,0,1.5-2.7,14.75,14.75,0,0,0,0-7.8,7.2,7.2,0,0,0-1.5-2.7,6.91,6.91,0,0,0-2.2-1.6,7.54,7.54,0,0,0-5.4,0,6.91,6.91,0,0,0-2.2,1.6,7.2,7.2,0,0,0-1.5,2.7A13.2,13.2,0,0,0,479.5,144.9Z" transform="translate(0 -0.4)"/><path class="cls-5" d="M505.5,134.6h6.4a9.67,9.67,0,0,1,2.9.4,7.19,7.19,0,0,1,2.1,1.2,3.87,3.87,0,0,1,1.2,1.9,6.72,6.72,0,0,1,.4,2.4,5.7,5.7,0,0,1-.4,2.2,5.85,5.85,0,0,1-1,1.7,5.26,5.26,0,0,1-1.4,1.2,8.86,8.86,0,0,1-1.7.8l5.7,8.9H517l-5.2-8.5h-4.2v8.5h-2.2Zm2.2,10.4h3.2a13.55,13.55,0,0,0,2-.2,4.34,4.34,0,0,0,2.7-2.1,4.33,4.33,0,0,0,.4-1.9,4.14,4.14,0,0,0-1.2-3.2,6.09,6.09,0,0,0-3.7-1h-3.4Z" transform="translate(0 -0.4)"/><path class="cls-5" d="M528.4,134.6h12.2v1.9h-9.8v7.1h9v1.9h-9v7.8h9.9v1.9H528.4V134.6Z" transform="translate(0 -0.4)"/><path class="cls-5" d="M550.1,134.6h6.4a9.67,9.67,0,0,1,2.9.4,7.19,7.19,0,0,1,2.1,1.2,3.87,3.87,0,0,1,1.2,1.9,6.72,6.72,0,0,1,.4,2.4,5.7,5.7,0,0,1-.4,2.2,5.85,5.85,0,0,1-1,1.7,5.26,5.26,0,0,1-1.4,1.2,8.86,8.86,0,0,1-1.7.8l5.7,8.9h-2.7l-5.2-8.5h-4.2v8.5H550V134.6Zm2.2,10.4h3.2a13.55,13.55,0,0,0,2-.2,4.34,4.34,0,0,0,2.7-2.1,4.33,4.33,0,0,0,.4-1.9,4.14,4.14,0,0,0-1.2-3.2,6.09,6.09,0,0,0-3.7-1h-3.4Z" transform="translate(0 -0.4)"/></svg>